<svg width="119" height="25" viewBox="0 0 119 25" fill="none" xmlns="http://www.w3.org/2000/svg">
<path d="M110.099 9.72631V8.40434C110.099 7.89888 109.943 7.31565 109.049 7.31565H94.2739C92.4076 7.31565 91.28 5.79927 91.28 4.20513C91.28 2.64987 92.4076 1.0946 94.2739 1.0946H111.304C116.67 1.0946 118.186 3.54414 118.186 7.23789V15.7141H100.573C99.6784 15.7141 99.2507 16.1806 99.2507 16.8805V17.0749C99.2507 17.7748 99.6784 18.1247 100.573 18.1247H116.009C118.186 18.1247 119.003 19.7577 119.003 21.1964C119.003 22.6739 118.147 24.2291 116.009 24.2291H98.5897C93.5351 24.2291 90.8523 21.5074 90.8523 17.3082V16.5695C90.8523 12.3703 93.5351 9.72631 98.5897 9.72631H110.099Z" fill="#FF4869"/>
<path d="M87.9677 23.8014H66.3107C61.606 23.8014 60.7506 22.4406 60.7506 17.9303V7.0046C60.7506 2.49434 61.606 1.0946 66.3107 1.0946H82.4076C87.1123 1.0946 87.9677 2.49434 87.9677 7.0046V23.8014ZM68.5269 8.40434V16.4528C68.5269 17.2305 68.7991 17.6581 69.7323 17.6581H80.1914V8.40434C80.1914 7.70447 79.997 7.23789 79.2193 7.23789H69.4601C68.6825 7.23789 68.5269 7.70447 68.5269 8.40434Z" fill="#FF4869"/>
<path d="M48.9778 9.57775V8.25578C48.9778 7.75032 48.8223 7.16709 47.928 7.16709H33.153C31.2867 7.16709 30.1591 5.65071 30.1591 4.05657C30.1591 2.50131 31.2867 0.946045 33.153 0.946045H50.1831C55.5488 0.946045 57.0652 3.39558 57.0652 7.08933V15.5655H39.4518C38.5576 15.5655 38.1299 16.0321 38.1299 16.732V16.9264C38.1299 17.6262 38.5576 17.9762 39.4518 17.9762H54.8878C57.0652 17.9762 57.8817 19.6092 57.8817 21.0478C57.8817 22.5253 57.0263 24.0806 54.8878 24.0806H37.4689C32.4143 24.0806 29.7314 21.3589 29.7314 17.1597V16.4209C29.7314 12.2217 32.4143 9.57775 37.4689 9.57775H48.9778Z" fill="#FF4869"/>
<path d="M7.93184 5.75447H19.052V3.46046C19.052 0.933157 20.9572 0 23.0179 0C24.962 0 26.9838 1.08868 26.9838 3.53822V23.1345H5.63783C0.933157 23.1345 0 21.657 0 17.1468V3.46046C0 0.933157 1.9052 0 3.96592 0C5.91 0 7.93184 1.08868 7.93184 3.53822V5.75447ZM9.13717 16.8357H19.052V11.82H7.93184V15.6693C7.93184 16.4469 8.20401 16.8357 9.13717 16.8357Z" fill="#FF4869"/>
</svg>
